<svg width="150" height="194" viewBox="0 0 150 194" fill="none" xmlns="http://www.w3.org/2000/svg">
<g clip-path="url(#clip0_1_20)">
<mask id="mask0_1_20" style="mask-type:alpha" maskUnits="userSpaceOnUse" x="0" y="0" width="153" height="194">
<path d="M146.076 87.7953C141.869 78.321 135.754 69.8172 128.112 62.8162L121.806 57.0268C121.592 56.8356 121.334 56.6999 121.056 56.6316C120.777 56.5634 120.486 56.5646 120.207 56.6353C119.929 56.7059 119.673 56.8438 119.46 57.0368C119.248 57.2299 119.086 57.4721 118.989 57.7423L116.172 65.8302C114.417 70.9041 111.188 76.0864 106.616 81.1819C106.312 81.5072 105.965 81.5939 105.727 81.6156C105.489 81.6373 105.12 81.5939 104.795 81.2903C104.492 81.0301 104.34 80.6398 104.362 80.2495C105.164 67.1962 101.263 52.4733 92.7252 36.4493C85.6608 23.1358 75.8444 12.7495 63.5793 5.50729L54.6296 0.238259C53.4594 -0.455606 51.9642 0.455091 52.0292 1.82114L52.506 12.2291C52.831 19.3412 52.0076 25.6294 50.0573 30.855C47.6736 37.2516 44.2498 43.1928 39.8725 48.5269C36.8262 52.234 33.3735 55.587 29.5793 58.5229C20.4413 65.5519 13.0108 74.5584 7.84447 84.8681C2.69083 95.2677 0.00628773 106.717 0 118.325C0 128.56 2.01529 138.469 6.00254 147.815C9.85254 156.812 15.4085 164.979 22.3633 171.861C29.3843 178.8 37.5321 184.264 46.6118 188.059C56.0165 192.005 65.9846 194 76.2778 194C86.5709 194 96.5391 192.005 105.944 188.08C115.001 184.308 123.237 178.807 130.192 171.883C137.213 164.944 142.717 156.835 146.553 147.836C150.534 138.516 152.577 128.483 152.556 118.347C152.556 107.766 150.389 97.4878 146.076 87.7953Z" fill="#545454"/>
</mask>
<g mask="url(#mask0_1_20)">
<path d="M162.559 175.697L-46.0929 95.5837L-68.5704 154.125L140.082 234.239L162.559 175.697Z" fill="#D82A1F"/>
<path d="M191.72 121.558L-16.9327 41.4443L-39.4102 99.9859L169.242 180.1L191.72 121.558Z" fill="#FA881F"/>
<path d="M201.915 55.1269L-6.73779 -24.9869L-30.5112 36.9297L178.141 117.043L201.915 55.1269Z" fill="#EFBD0D"/>
</g>
</g>
<defs>
<clipPath id="clip0_1_20">
<rect width="150" height="194" fill="white"/>
</clipPath>
</defs>
</svg>
